<?xml version="1.0" ?><svg style="enable-background:new 0 0 64 64;" version="1.1" viewBox="0 0 64 64" xml:space="preserve" xmlns="http://www.w3.org/2000/svg" xmlns:xlink="http://www.w3.org/1999/xlink"><style type="text/css">
	.st0{fill:#0072FF;}
</style><g id="GUIDES_64"/><g id="Layer_3"/><g id="Layer_2"><path class="st0" d="M32,60C32,60,32.1,60,32,60L32,60z"/><path class="st0" d="M33.9,59.1c3.9-2,7.6-4.5,10.8-7.5c0.7-0.7,1.5-1.4,2.1-2.1c0.3-0.3,0.6-0.6,0.9-1c0.5-0.5,0.8-1,1.3-1.5   c0.5-0.6,1-1.2,1.4-1.9c0.9-1.4,1.8-2.8,2.5-4.3c0.4-0.8,0.8-1.6,1.1-2.5c0,0,0,0,0,0c0.8-2.2,1.4-4.5,1.7-6.8   c0.1-0.6,0.1-1.3,0.2-1.9c0.1-1.7,0.1-3.3-0.2-5c-0.8-5-2.8-9.3-6.2-12.9c-1.3-1.5-2.9-2.7-4.5-3.8c-3.1-2-6.5-3.2-10.2-3.7   c-0.4-0.1-0.9,0-1.3-0.2h-3.2c0,0.1-0.1,0.1-0.2,0.1c-0.8,0.1-1.6,0.2-2.4,0.3c-5.9,1.1-10.7,4-14.4,8.7c-3.1,3.8-4.8,8.3-5.1,13.2   c-0.3,3.5,0.2,7,1.5,10.5c0.2,0.6,0.5,1.1,0.7,1.6c0.1,0.1,0.1,0.3,0.2,0.4c1.3,2.5,2.9,4.8,5,6.7c1.1,1,2.2,1.9,3.5,2.7   c3.8,2.4,8,3.7,12.6,3.8c0.3,0,0.4,0.1,0.4,0.4l0,5.6C32,58.9,33,59.5,33.9,59.1z M34.2,21.5c-0.1-0.6,0.1-1,0.6-1.3   c0.2-0.1,0.4-0.2,0.6-0.2c3,0,5.9,0,8.9,0c0.8,0,1.2,0.7,1.2,1.6c0,0.4,0,7.1,0,10.5c0,3-1.9,5.8-4.6,7c-0.1,0-0.1,0.1-0.2,0.1   c0,0.1,0.1,0.1,0.2,0.1c-0.1,0-0.1,0-0.2-0.1c0,0-0.1,0-0.1,0c0,0,0,0-0.1,0c-0.6,0.2-1.2,0.3-1.8,0.4C38.3,39.7,38,39.4,38,39   c0-0.3,0-0.6,0-1c0-0.6,0-1.1,0-1.7c0-0.1,0-0.3,0-0.4c0-0.4,0.2-0.6,0.7-0.8c0.7-0.2,1.3-0.4,1.9-0.9c0.6-0.6,1-1.4,1.1-2.2   c-1.9,0-3.7,0-5.6,0c-0.2,0-0.4,0-0.6,0c-0.8,0-1.3-0.5-1.3-1.3C34.2,27.7,34.2,24.6,34.2,21.5C34.2,21.6,34.2,21.6,34.2,21.5z    M29.8,32.1c0,2.2-0.9,4.1-2.5,5.6c-0.1,0.1-0.2,0.2-0.2,0.2c-0.8,0.6-1.7,1.2-2.8,1.4c-0.4,0.1-0.9,0.2-1.3,0.3   c-0.3,0.1-0.6-0.1-0.7-0.5c0-1,0-1.9,0-2.9c0-0.3-0.1-0.6,0.1-0.8c0.1-0.1,0.2-0.2,0.4-0.3c0.5-0.1,1-0.2,1.5-0.5   c0.8-0.5,1.4-1.2,1.6-2.2c0-0.1,0.1-0.3,0.1-0.5c-2,0-4,0-6.1,0c-0.2,0-0.3,0-0.5-0.1c-0.5-0.1-0.9-0.6-0.9-1.2c0-3.1,0-6.1,0-9.2   c0-0.5,0-1,0.4-1.3c0.2-0.2,0.5-0.3,0.8-0.3c3,0,6,0,8.9,0c0.8,0,1.2,0.2,1.2,1.6C29.8,21.8,29.8,28.7,29.8,32.1z"/></g></svg>